<?xml version="1.0" encoding="utf-8"?>
<!-- Generator: Adobe Illustrator 21.0.0, SVG Export Plug-In . SVG Version: 6.00 Build 0)  -->
<svg version="1.1" id="Layer_1" xmlns="http://www.w3.org/2000/svg" xmlns:xlink="http://www.w3.org/1999/xlink" x="0px" y="0px"
	 viewBox="0 0 904.5 841.9" style="enable-background:new 0 0 904.5 841.9;" xml:space="preserve">
<style type="text/css">
	.st0{fill:#F06024;}
	.st1{fill:#F58521;}
	.st2{fill:#FFFFFF;}
	.st3{fill:#0973B9;}
</style>
<g>
	<g>
		<g>
			<path class="st0" d="M491.3,164.4c-60.2,15-122.1,72.9-166.5,151.9c0,0.2,0,0.4,0,0.6c1.3,20.2,4.9,39.6,10.4,57.6
				c9.5,30.7,24.7,57.5,43.8,78.3C362.5,328.7,405.3,231.4,491.3,164.4z"/>
			<path class="st0" d="M395.6,225.8"/>
		</g>
		<path class="st1" d="M491.4,164.2"/>
		<path class="st2" d="M569.2,122.3c10.9,15.2,17.4,33.9,17.4,54c0,19.1-5.8,36.9-15.7,51.6c-21.4,32.7-76.6,62.2-122.9,106.9
			c16.6,11.9,36.2,18.7,57.1,18.7c60.5,0,109.5-57.2,109.5-127.7C614.6,183.2,596.7,145.5,569.2,122.3z"/>
		<path d="M448,334.8c-31.6,30.4-59.1,67.8-69,118h0c0,0,0,0,0,0c26.1,28.2,59.6,45.2,96.1,45.2v0h187.7c6.3,0,11.9,3,15.7,7.8
			c-3.6-21-21.9-37-44-37h-5.7c-16.8-1.1-30.2-15.2-30.2-32.3c0-8,2.9-15.3,7.7-20.9c30.5-36.2,49.6-88.4,49.6-146.5
			c0-11.6-0.8-22.9-2.2-34c-4.3-32.7-14.8-62.7-29.8-87.8c-27.6-46.2-70.6-75.9-118.9-75.9c-37.3,0-71.4,17.7-97.7,47.1c0,0,0,0,0,0
			c-15,2.1-29.6,6.5-43.5,12.7c0,0,49.6,6.2,95.3,45.1c10.7-5.3,21.5-9.3,32.2-12c-8.2,6.4-16,13-23.4,20c21.7,21,41.7,50,54,90.1
			c9.5-7.3,18.3-14.3,26.1-21.3l0,0c9.5-8.4,17.4-16.8,23-25.3c9.9-14.8,15.7-32.5,15.7-51.6c0-20.2-6.5-38.8-17.4-54
			c27.5,23.2,45.4,60.9,45.4,103.5c0,70.5-49,127.7-109.5,127.7C484.2,353.5,464.6,346.7,448,334.8L448,334.8z"/>
		<g>
			<path class="st0" d="M586.1,166.3c-1.7-16.3-7.7-31.4-16.8-44.1c-18-15.2-40.2-24.2-64.1-24.2h0c-26.9,0-51.5,11.3-70.5,30
				c54.1,23,92.2,64.4,113.4,125.1l0,0c9.5-8.5,17.4-16.8,23-25.4c9.9-14.8,15.7-32.5,15.7-51.6
				C586.6,172.9,586.4,169.6,586.1,166.3z"/>
		</g>
		<g>
			<path class="st3" d="M559.8,145.9c0,15.3-12.4,27.6-27.6,27.6c-15.3,0-27.6-12.3-27.6-27.6c0-15.2,12.4-27.6,27.6-27.6
				C547.5,118.4,559.8,130.7,559.8,145.9z"/>
			<path d="M545.4,145.9c0,7.3-5.9,13.2-13.2,13.2c-7.3,0-13.2-5.9-13.2-13.2c0-7.3,5.9-13.2,13.2-13.2
				C539.5,132.8,545.4,138.7,545.4,145.9z"/>
			<path class="st2" d="M545.4,137.4c0,2.6-2.1,4.6-4.6,4.6c-2.6,0-4.7-2.1-4.7-4.6c0-2.6,2.1-4.6,4.7-4.6
				C543.3,132.8,545.4,134.8,545.4,137.4z"/>
		</g>
		<path class="st1" d="M467.9,184.4c-70.2,65.8-103.8,156.2-88.9,268.4h0c9.9-50.2,37.4-87.6,69-118c24.3-23.4,50.9-42.6,73.9-60.3
			C509.6,234.4,489.6,205.3,467.9,184.4L467.9,184.4z"/>
		<g>
			<path d="M290.9,186.3c21.1-23.7,45.8-42.9,72.9-55c-1.2-9.7-3-19.2-5.3-28.4c-1.2-4.8-2.5-9.4-3.9-14c-8.7,0.7-17.9,2.4-27.2,5.1
				c-0.2-1-0.5-2-0.7-3c-0.6-2.6-1.4-5.1-2.1-7.6c-6.6,0.5-13.6,2.1-20.6,4.7c-15.7,5.8-27.8,15.6-33.4,25.6c2.3,1.9,4.4,4,6.5,6.2
				c-9.3,7.6-16.6,16-21.3,24.5C269.1,155.9,281,170,290.9,186.3z"/>
			<path d="M217.4,373.8c0,46.9,14.2,91.3,47,124.4c5.3-42,16.3-82.8,31.3-120.8c-12-8.9-26.4-14.1-41.8-14.1
				C240.7,363.3,228.2,367.1,217.4,373.8z"/>
		</g>
		<path class="st1" d="M459.1,176.4c-45.5-38.9-94.9-45.1-95.2-45.1c-85,38-146.4,145.5-146.4,242.6c10.8-6.7,23.3-10.5,36.5-10.5
			c15.5,0,29.8,5.2,41.8,14.1C332.8,283.7,394.9,207.9,459.1,176.4z"/>
	</g>
	<g>
		<path d="M423.4,621c0,13.6-7.1,24-22,24c-15,0-22.2-10.4-22.2-24v-64.6h-24.8V621c0,29.4,19.4,46.3,47,46.3s46.8-16.9,46.8-46.3
			v-64.6h-24.8V621z"/>
		<path d="M521.9,645c-18.4,0-32.9-14.1-32.9-34.6c0-19.7,13.6-34.7,32.9-34.7c9.6,0,19.1,3.9,27,10.2l12.6-17.7
			c-10.5-10.1-24.5-14.9-39.1-14.9c-33.2,0-58.4,24-58.4,57c0,33.2,25.3,56.9,58.1,56.9c16.3,0,30.5-6,41.4-16.6l-12.1-18
			C543.9,639.3,533.6,645,521.9,645z"/>
		<path d="M621.8,553.3l-53.2,111.6h25.7l6.4-15.3h44.2l6.4,15.3h25.9L624,553.3H621.8z M608.4,630.9l14.6-35l14.4,35H608.4z"/>
		<polygon points="758.3,556.4 758.3,616.2 690,553.3 688,553.3 688,664.8 712.3,664.8 712.3,606.4 780.6,667.9 782.6,667.9 
			782.6,556.4 		"/>
		<path d="M280.8,553.4c-31.9,0-57.8,24-57.8,57c0,33.2,25.9,56.9,57.8,56.9c31.9,0,57.6-23.7,57.6-56.9
			C338.5,577.4,312.8,553.4,280.8,553.4z M280.7,645c-17.8,0-32.5-14.1-32.5-34.6c0-20.5,14.7-34.7,32.5-34.7
			c18.1,0,32.5,14.3,32.5,34.7C313.2,630.9,298.8,645,280.7,645z"/>
		<path d="M121.9,567.8l9.2,20.6c0.1-0.1,10.8-8.1,26.3-11.3v87.8h24.8V577c15.5,3.2,26.2,11.3,26.3,11.3l9.2-20.6
			c-7.9-5-25.7-14.3-47.9-14.3S129.8,562.8,121.9,567.8z"/>
		<path d="M222.4,720.9h18.5c9.4,0,16.3,6.3,16.3,15.7c0,9.2-7.2,15.9-16.3,15.9h-9.2v17h-9.2V720.9z M240,744.6
			c4.6,0,7.8-3.3,7.8-8c0-4.7-3.2-7.8-7.8-7.8h-8.3v15.8H240z"/>
		<path d="M268.2,720.9h9.2v40.2h23.7v8.4h-32.9V720.9z"/>
		<path d="M342.8,760h-18.6l-3,9.6h-9.5l16.1-48.6h11.6l16.1,48.6h-9.8L342.8,760z M340.2,751.7l-6.4-20.7h-0.6l-6.5,20.7H340.2z"/>
		<path d="M382.5,769.6h-9v-18.8l-16.7-29.9h10.1l10.8,20.2h0.5l10.7-20.2H399l-16.6,29.8L382.5,769.6z"/>
		<path d="M440.9,753v-15.4c0-10,7.4-17.5,18.5-17.5c10.8,0,18.1,6.7,18.5,17h-9.2c-0.3-4.3-3.4-8.1-9.2-8.1c-6.1,0-9.2,4.4-9.2,9.1
			v14.7c0,4.8,3.1,9.2,9.2,9.2c6.1,0,9.2-4.4,9.2-9.1v-2.3h-11v-7.2h20.2v9.6c0,10.2-7.5,17.4-18.3,17.5
			C448.3,770.5,440.9,763,440.9,753z"/>
		<path d="M519.9,760h-18.6l-3,9.6h-9.5l16.1-48.6h11.6l16.1,48.6h-9.8L519.9,760z M517.3,751.7l-6.4-20.7h-0.6l-6.5,20.7H517.3z"/>
		<path d="M545.1,720.9h11.3l8.5,36.1h0.4l8.5-36.1h11.3v48.6H577v-30.2h-0.4l-7,30.2h-9.2l-7-30.2H553v30.2h-7.9V720.9z"/>
		<path d="M602.5,720.9h29.9v8h-20.7V741h17.7v7.9h-17.7v12.6h21.4v8h-30.6V720.9z"/>
		<path d="M645.3,754.2h9c0.1,4.4,3.7,7.8,9.8,7.8c5.2,0,8.5-2.2,8.5-5.9c0-11.1-25.9-2.2-25.9-22c0-7.7,6.1-14,16.8-14
			c9.2,0,17.1,4.9,17.4,15h-9.2c-0.1-4-2.9-6.7-8.1-6.7c-5.1,0-7.6,2.6-7.6,5.6c0,10.1,26.2,1.8,26.2,21.5c0,8.6-6.7,15.1-18.3,15.1
			C652.6,770.5,645.3,763.9,645.3,754.2z"/>
		<path d="M698.1,724.7h-4.2v-3.8h12.6v3.8h-4.2v14h-4.1V724.7z M709.2,720.9h4.8l2.7,10.6h0.3l2.7-10.6h4.8v17.8h-4v-9.1h-0.2
			l-2.1,9.1h-2.7l-2.1-9.1h-0.2v9.1h-4V720.9z"/>
	</g>
</g>
</svg>
